<?xml version="1.0" standalone="no"?><!DOCTYPE svg PUBLIC "-//W3C//DTD SVG 1.1//EN" "http://www.w3.org/Graphics/SVG/1.1/DTD/svg11.dtd"><svg t="1560138502879" class="icon" style="" viewBox="0 0 1024 1024" version="1.1" xmlns="http://www.w3.org/2000/svg" p-id="16508" xmlns:xlink="http://www.w3.org/1999/xlink" width="200" height="200"><defs><style type="text/css"></style></defs><path d="M1003.971599 355.04688c-84.019934 76.568556-176.800882 137.082778-289.700552 162.711003-29.715193 6.72882-59.746505 4.538567-89.619757 8.444895-31.340948 4.109548-48.050099 20.118721-59.814245 45.950166-3.974068 8.761014-8.331996 17.680088-10.27387 26.983021-4.154708 20.141301-19.576803 25.854024-34.16344 19.825182-14.541477-6.006262-18.470386-20.931599-9.867431-37.889129 3.56763-7.067519 5.848203-10.048071 12.893143-8.602955 8.106196 1.670915 15.038236 0.699978 16.144652-8.873914 0.925777-8.061036 0.09032-16.054333-7.067519-22.128335-15.918853-13.57054-49.201676-11.696406-62.998016 3.861168-13.096362 14.767277-9.641632 34.908578 9.009394 37.121412 15.828534 1.896714 14.338258 9.506152 17.296229 20.028401 8.015877 28.586196 20.028401 54.75634 60.581963 51.32419 20.028401-1.670915 28.270077-15.399515 35.856935-27.953959 41.163219-68.21398 105.335391-78.939449 176.258964-71.962249 11.109327 1.106417 23.596031-2.257993 33.96022 5.080485 2.212834 1.535436 4.245028 3.29667 7.270739 5.712724-49.404895 5.193385-95.44538 16.596251-134.779625 48.388798-20.028401 16.212393-35.405336 36.173054-47.98236 57.330452-34.637619 58.369129-113.373848 79.391047-181.407188 33.237663-8.286836-5.622404-13.999559-7.022359-24.00247-4.696627-62.794796 14.428578-92.735788-2.461213-116.08344-64.71409-3.206351-8.512635-5.170805-5.690143-12.486703-5.148225-56.201455 4.199868-109.761058-1.174157-159.030474-35.021477-76.116957-52.272547-93.458346-158.804675-47.598501-233.318457 8.964234-14.586637 19.238104-28.518456 36.060154-37.50527 12.125424-6.457861 17.18333-20.818699 21.134818-35.698875 12.735083-48.162999 39.176185-86.255347 90.658435-98.945271 57.511092-14.180198 107.480485-0.654818 147.334068 45.001809 5.532084 6.344961 10.27387 14.631797 21.608997 13.3899 73.655744-8.196516 128.773363 30.66355 179.352414 75.34924 83.590915 73.836384 176.823462 95.67118 283.242691 62.749636 8.377155-2.574112 17.589768-2.461213 26.892701-1.806395a241.898831 241.898831 0 0 1-104.025755 35.021478c-75.687938 7.157839-149.546902-0.316119-219.386638-36.511754-26.937861-13.954399-53.898302-28.405557-81.423241-41.389018-37.46011-17.702668-101.790342-12.509283-121.389725 40.576141 4.764366 2.980551 8.490055 0.677398 11.922206-2.461213 37.866549-34.750518 71.78161-39.560044 120.780066-14.609217 41.795458 21.247718 81.626461 46.311444 127.870165 58.323969 12.712503 3.29667 28.541036 0.1129 38.589107 12.486703-61.914179 7.902977-120.102668-4.741786-176.755722-28.270077-20.886439-8.670695-40.192282-4.403087-56.472415 12.622183-14.789857 15.489835-20.299361 32.763484-13.728599 53.401544 3.56763 11.289967 10.793208 18.154267 23.076692 18.786505 12.170584 0.609658 22.828313-3.928908 29.918412-13.051202 6.79656-8.693275-1.512856-17.251069-5.148225-24.657288-6.457861-13.277001-18.470386-3.928908-28.563616-3.093451 9.031974-28.292657 28.699096-37.57301 57.556251-26.350782 45.701786 17.792988 91.968071 32.153826 141.508446 34.298919 108.135303 4.628886 207.757971-23.415391 303.022712-72.978346 20.773539-10.815788 37.979449-31.431268 64.691511-29.828093l-0.722558-0.541918z" fill="#1296db" p-id="16509"></path></svg>